<?xml version="1.0" encoding="UTF-8"?>
<svg width="135px" height="46px" viewBox="0 0 135 46" version="1.1" xmlns="http://www.w3.org/2000/svg" xmlns:xlink="http://www.w3.org/1999/xlink">
    <!-- Generator: Sketch 56.3 (81716) - https://sketch.com -->
    <title>WABI2b_Horizontal</title>
    <desc>Created with Sketch.</desc>
    <g id="Page-1" stroke="none" stroke-width="1" fill="none" fill-rule="evenodd">
        <g id="WABI2b_Horizontal">
            <g id="Wabi2b-2" transform="translate(8.836364, 8.836364)" fill-rule="nonzero">
                <path d="M41.7272727,0.368179119 C39.2050637,0.376309279 37.1662329,2.42611568 37.1716361,4.94833201 C37.1770608,7.47054834 39.2246726,9.51158317 41.7468933,9.50888542 C44.269114,9.50618232 46.3123636,7.46076759 46.3123636,4.93854545 C46.3069468,2.41089846 44.2549241,0.365466847 41.7272727,0.368179119" id="Path" fill="#21C063"></path>
                <path d="M1.07509091,10.3090909 L1.28127273,10.5447273 C1.65346471,10.8761323 2.21489893,10.8761323 2.58709091,10.5447273 C2.96927935,10.2613016 3.07156373,9.73283228 2.82272727,9.32727273 L2.82272727,9.32727273 L2.13054545,8.51236364 C1.7546581,8.17836481 1.18057115,8.20674173 0.839454545,8.57618182 C0.642151531,8.70710488 0.505267324,8.91136538 0.459183601,9.14362734 C0.413099878,9.3758893 0.461629055,9.61693816 0.594,9.81327273 L1.07509091,10.3090909 Z" id="Path" fill="#21C063"></path>
                <path d="M8.93454545,15.282 L10.5741818,13.1710909 L8.30618182,10.1961818 C8.16210856,9.98161848 7.93507036,9.83687144 7.67974894,9.79680275 C7.42442752,9.75673406 7.16396413,9.82497538 6.96109091,9.98509091 C6.55957988,10.3014268 6.48138118,10.8792283 6.78436364,11.2909091 L5.43927273,9.43527273 C5.26971822,9.25728919 5.03463696,9.15655908 4.78881818,9.15655908 C4.5429994,9.15655908 4.30791814,9.25728919 4.13836364,9.43527273 C3.7385048,9.7511919 3.64681576,10.3205169 3.92727273,10.746 L6.32781818,13.9369091 C6.38779659,14.2922582 6.23658349,14.650193 5.94,14.8549091 C5.55396055,15.1363095 5.02140864,15.0990102 4.67836364,14.7665455 L3.29890909,13.0434545 L2.87672727,12.5525455 L2.81290909,12.4936364 C2.44338609,12.2083675 1.92409322,12.2227353 1.57090909,12.528 C1.37202941,12.6439785 1.23108161,12.838237 1.18252369,13.0632843 C1.13396577,13.2883315 1.1822733,13.5234251 1.31563636,13.7110909 L2.27290909,14.9089091 C3.50621664,15.8825921 5.01767885,16.4379985 6.588,16.4945455 C7.52844116,16.5313273 8.42191407,16.0827371 8.95418182,15.3065455" id="Path" fill="#21C063"></path>
                <path d="M20.6181818,15.9790909 L20.6181818,15.9790909 L20.4807273,15.7090909 L20.4807273,15.7090909 C19.4007273,13.7847273 17.01,9.53345455 16.6418182,8.87072727 C16.3914545,8.41417926 16.2932727,8.41417926 16.2245455,8.41417926 C16.0386483,8.41381827 15.8547233,8.45227531 15.6845455,8.52709091 C14.3296364,10.2649091 12.7145455,12.3218182 11.2909091,14.1332727 L11.2909091,14.1332727 L9.85745455,15.984 C9.47712003,16.4948538 8.98734821,16.9141793 8.424,17.2112727 L8.36018182,17.2456364 L8.14909091,17.334 L8.14909091,17.334 C8.02760717,17.3845395 7.90298375,17.4271738 7.776,17.4616364 L7.70236364,17.4616364 L7.49127273,17.5107273 L7.41763636,17.5107273 C7.36252972,17.5233411 7.30682281,17.5331717 7.25072727,17.5401818 L7.00527273,17.5745455 L6.79909091,17.5745455 L6.57327273,17.5745455 L6.34745455,17.5745455 C5.57108507,17.5596001 4.80145344,17.4271903 4.06472727,17.1818182 C5.53745455,19.0227273 6.42109091,20.1518182 6.94145455,20.8390909 C7.54790751,21.6887354 8.2910828,22.4319107 9.14072727,23.0383636 C11.5952727,24.5749091 14.2805455,23.2936364 15.9250909,21.6932727 L20.9569091,16.5878182 L20.6181818,15.9790909 Z" id="Path" fill="#21C063"></path>
                <path d="M27.0294545,6.61254545 L25.8610909,4.64890909 L25.7923636,4.55563636 C25.7138182,4.44272727 25.6352727,4.33472727 25.5518182,4.23654545 C25.5534298,4.22514759 25.5534298,4.21357968 25.5518182,4.20218182 C25.3540749,4.03083481 25.1422333,3.87646962 24.9185455,3.74072727 C22.8685567,2.44510741 20.1725619,2.89514416 18.6545455,4.78636364 L18.6545455,4.78636364 L16.6418182,7.33909091 L16.4061818,7.63854545 C16.6467273,7.32927273 16.9314545,7.42254545 17.2014545,7.68272727 C17.3696368,7.87252238 17.5192306,8.07800837 17.6481818,8.29636364 C17.7414545,8.44854545 17.8298182,8.60072727 17.9083636,8.75290909 L17.9869091,8.91 C18.0212727,8.97381818 18.0507273,9.03763636 18.0752727,9.09163636 L18.2078182,9.33709091 C19.1896364,11.2369091 21.8061818,15.7189091 21.8209091,15.7189091 L21.8209091,15.7189091 L22.0270909,16.0723636 L22.9107273,17.6187273 L22.9107273,17.6187273 L22.9107273,17.6187273 L23.0334545,17.7954545 C23.5720682,18.5381785 24.454782,18.9517189 25.3701818,18.8901818 C26.527627,18.9493103 27.618208,18.3459697 28.1830909,17.334 C29.0225455,16.0232727 30.1467273,14.1332727 30.8192727,12.9158182 L27.0294545,6.61254545 Z" id="Path" fill="#21C063"></path>
                <path d="M37.0341818,9.50890909 C35.5711474,9.49545347 34.1823124,10.151895 33.264,11.2909091 C33.0479459,11.5544492 32.8588208,11.838959 32.6994545,12.1401818 L32.3116364,12.798 L31.2905455,14.5210909 L29.2385455,17.8347273 C29.2090909,17.8789091 29.1796364,17.9230909 29.1550909,17.9672727 C28.891974,18.3558071 28.5874636,18.7146356 28.2469091,19.0374545 C27.8203238,19.4140914 27.3182146,19.6952726 26.7741818,19.8621818 C26.3094202,20.0014949 25.8258324,20.0677398 25.3407273,20.0585455 C24.9403431,20.0607626 24.5412511,20.0129375 24.1527273,19.9161818 L24.9381818,21.3545455 L25.6794545,22.6603636 L25.6794545,22.6603636 L25.7629091,22.8125455 L26.0132727,23.3034545 C26.0476364,23.382 26.0721818,23.4507273 26.1016364,23.5243636 L26.6661818,24.5454545 C27.2106101,25.6584257 28.0894362,26.5732975 29.1796364,27.162 L29.1796364,27.162 C29.3126757,27.2465471 29.4503459,27.3235768 29.592,27.3927273 C31.906973,28.5181496 34.6974303,27.6089726 35.9050909,25.3358182 L41.1234545,16.2490909 C41.1774545,16.146 41.2167273,16.0429091 41.2609091,15.9447273 C41.579163,15.3388354 41.7475049,14.665468 41.7518182,13.9810909 C41.6875553,11.4449922 39.5801266,9.44084728 37.044,9.504" id="Path" fill="#21C063"></path>
                <path d="M52.5616364,20.9912727 L50.8827273,12.7636364 C50.8280868,12.5005766 50.8148365,12.2306007 50.8434545,11.9634545 C50.9946856,11.0881304 51.7568174,10.4505979 52.6450909,10.4563636 C53.3898272,10.4307361 54.0212277,10.9992136 54.0736364,11.7425455 L55.0161818,17.6727273 L57.6867273,11.7818182 C57.992184,10.9988851 58.7366439,10.4748627 59.5767273,10.4514545 L59.7730909,10.4514545 C60.5470622,10.4297914 61.2056384,11.0111404 61.2801818,11.7818182 L62.262,17.7021818 L64.9423636,11.7376364 C65.221969,10.9704619 65.9471566,10.4563801 66.7636364,10.4465455 C67.1587925,10.4234967 67.5422804,10.5850876 67.8017761,10.8839883 C68.0612719,11.1828889 68.1674057,11.5852696 68.0890909,11.9732727 C68.0460884,12.2055594 67.9786217,12.4326424 67.8878182,12.6507273 L63.7543636,20.9961818 C63.2634545,22.0172727 62.5221818,22.4689091 61.7170909,22.4689091 L61.6090909,22.4689091 C60.7855596,22.5029176 60.0837088,21.8771187 60.0234545,21.0550909 L59.0121818,15.1641818 L56.3023636,21.0550909 C55.9924235,21.8789257 55.2183304,22.4362728 54.3387273,22.4689091 L54.2307273,22.4689091 C53.4256364,22.4689091 52.812,22.0123636 52.6107273,20.9961818" id="Path" fill="#2F2F35"></path>
                <path d="M66.6850909,18.9 L66.6850909,18.8558182 C67.0483636,16.308 69.1396364,15.1298182 71.9181818,15.1298182 C72.8683471,15.1202499 73.8120714,15.2866916 74.7016364,15.6207273 L74.7261818,15.4243636 C74.9274545,14.0498182 74.1812727,13.2889091 72.5318182,13.2889091 C71.7426115,13.2834478 70.9569049,13.3942738 70.2,13.6178182 C70.0419251,13.6718895 69.8761536,13.7000707 69.7090909,13.7012727 C69.3596186,13.719103 69.0212108,13.575983 68.7905792,13.3128141 C68.5599475,13.0496452 68.4624685,12.695384 68.526,12.3512727 C68.6251987,11.7606848 69.0367056,11.2702589 69.6010909,11.07 C70.8241206,10.6397825 72.1142843,10.4319598 73.4105455,10.4563636 C75.2170909,10.4563636 76.4590909,10.9472727 77.166,11.7670909 C77.8729091,12.5869091 78.1232727,13.9221818 77.8974545,15.4881818 L77.1414545,20.8047273 C76.9944453,21.709045 76.2214929,22.3786614 75.3054545,22.3952727 C74.3236364,22.3952727 73.8327273,21.7178182 73.9063636,21.0207273 L73.9063636,21.0207273 C72.9110618,21.9959783 71.5636009,22.5271718 70.1705455,22.4934545 C67.9712727,22.4934545 66.3414545,21.2318182 66.6703636,18.9245455 M74.3972727,18.1636364 L74.4758182,17.5745455 C73.8357619,17.2745253 73.1354989,17.1250687 72.4287273,17.1376364 C71.0149091,17.1376364 70.0625455,17.7021818 69.9152727,18.7478182 L69.9152727,18.792 C69.7876364,19.6854545 70.4503636,20.2058182 71.5205455,20.2058182 C73.062,20.2058182 74.2303636,19.3565455 74.4021818,18.1636364" id="Shape" fill="#2F2F35"></path>
                <path d="M80.0918182,7.87909091 C80.2406312,6.94412576 81.0353818,6.248461 81.9818182,6.22472727 C82.4050601,6.21163866 82.8114581,6.39093838 83.0871104,6.71237386 C83.3627628,7.03380934 83.4780078,7.46279222 83.4005455,7.87909091 L82.7770909,12.2727273 C83.7307486,11.0777884 85.1755295,10.3806816 86.7043636,10.3778182 C89.424,10.3778182 91.7116364,12.5083636 91.1569091,16.4110909 L91.1569091,16.4503636 C90.6021818,20.3776364 87.75,22.4836364 84.9812727,22.4836364 C83.6223892,22.5474371 82.3321444,21.8836155 81.594,20.7409091 L81.594,20.7654545 C81.4370966,21.6908684 80.6472145,22.3758442 79.7089091,22.4001818 C79.2852294,22.4117212 78.8790108,22.2312497 78.6035741,21.9091127 C78.3281374,21.5869756 78.2129635,21.1576524 78.2901818,20.7409091 L80.0918182,7.87909091 Z M87.8236364,16.4356364 L87.8236364,16.3963636 C88.0985455,14.4572727 86.9743636,13.1710909 85.428,13.1710909 C83.8816364,13.1710909 82.4138182,14.4572727 82.1389091,16.3963636 L82.1389091,16.4356364 C81.8689091,18.3992727 82.9685455,19.6609091 84.5149091,19.6609091 C86.0612727,19.6609091 87.5487273,18.3992727 87.8285455,16.4356364 L87.8236364,16.4356364 Z" id="Shape" fill="#2F2F35"></path>
                <path d="M92.664,12.1058182 C92.8106823,11.1689093 93.6059859,10.4706947 94.554,10.4465455 C94.9776797,10.4350061 95.3838983,10.6154775 95.659335,10.9376146 C95.9347717,11.2597516 96.0499456,11.6890749 95.9727273,12.1058182 L94.7454545,20.7261818 C94.5987722,21.6630907 93.8034686,22.3613053 92.8554545,22.3854545 C92.4309277,22.3985112 92.0233087,22.2186909 91.7467426,21.8963483 C91.4701765,21.5740058 91.3543943,21.1437929 91.4318182,20.7261818 L92.664,12.1058182 Z M93.0812727,7.79072727 C93.2187273,6.83345455 94.1072727,6.24436364 95.1529091,6.24436364 C96.1985455,6.24436364 96.9201818,6.83345455 96.7827273,7.79072727 L96.7827273,7.85454545 C96.5852077,8.82383971 95.6975091,9.49487251 94.7110909,9.42054545 C93.6605455,9.42054545 92.9438182,8.81181818 93.0812727,7.85454545 L93.0812727,7.79072727 Z" id="Shape" fill="#2F2F35"></path>
                <path d="M97.794,19.9112727 L101.583818,17.1327273 C103.238182,15.9250909 103.915636,15.2574545 104.072727,14.2707273 C104.187393,13.874196 104.094188,13.4465772 103.824904,13.1337329 C103.55562,12.8208886 103.146635,12.6650803 102.737455,12.7194545 C101.996182,12.7194545 101.421818,13.0434545 100.651091,13.7601818 C100.397863,13.996945 100.06502,14.1300823 99.7183636,14.1332727 C99.41689,14.1403431 99.1288993,14.0084864 98.9372682,13.7756547 C98.7456371,13.5428229 98.6716291,13.2348445 98.7365455,12.9403636 C98.7966219,12.6329702 98.9450455,12.3497712 99.1636364,12.1254545 C100.221289,10.9765172 101.721051,10.3365709 103.282364,10.368 C105.736909,10.368 107.106545,11.8407273 106.753091,14.0498182 L106.753091,14.0841818 C106.438909,16.0772727 105.280364,17.0689091 102.924,18.7036364 L100.768909,20.1763636 L104.877818,20.1763636 C105.167143,20.1700656 105.443481,20.2963413 105.628086,20.519207 C105.812691,20.7420726 105.885319,21.0370869 105.825273,21.3201818 C105.711486,21.9570558 105.166167,22.4265222 104.519455,22.4443636 L98.1376364,22.4443636 C97.3276364,22.4443636 96.8121818,21.9878182 96.9349091,21.2023636 C97.0398718,20.6755751 97.3486306,20.2115549 97.794,19.9112727 L97.794,19.9112727 Z" id="Path" fill="#21C063"></path>
                <path d="M108.461455,11.2221818 C108.585711,10.4971576 109.199243,9.95724871 109.934182,9.92618182 C110.262704,9.91724832 110.577115,10.0597558 110.786941,10.3126975 C110.996768,10.5656392 111.078741,10.900964 111.009273,11.2221818 L110.469273,14.6585455 C111.209736,13.7336685 112.328156,13.1924973 113.512909,13.1858182 C115.618909,13.1858182 117.356727,14.8598182 116.870727,17.9083636 L116.870727,17.9427273 C116.379818,20.9961818 114.156,22.6652727 112.015636,22.6652727 C110.967135,22.7183354 109.973238,22.1950333 109.423636,21.3005455 L109.423636,21.3005455 C109.291186,22.017807 108.679714,22.5477496 107.950909,22.5769091 C107.622387,22.5858426 107.307976,22.4433351 107.09815,22.1903934 C106.888323,21.9374517 106.80635,21.6021269 106.875818,21.2809091 L108.461455,11.2221818 Z M114.318,17.9181818 L114.318,17.8838182 C114.558545,16.3669091 113.709273,15.3605455 112.511455,15.3605455 C111.313636,15.3605455 110.164909,16.3669091 109.924364,17.8838182 L109.924364,17.9181818 C109.683818,19.4350909 110.518364,20.4414545 111.711273,20.4414545 C112.904182,20.4414545 114.072545,19.4547273 114.318,17.9181818 Z" id="Shape" fill="#21C063"></path>
            </g>
            <rect id="Rectangle" x="0" y="0" width="134.892" height="45.9392727"></rect>
        </g>
    </g>
</svg>